<svg xmlns="http://www.w3.org/2000/svg" xml:space="preserve" id="Layer_1" x="0" y="0" style="enable-background:new 0 0 400 400" version="1.1" viewBox="0 0 400 400"><style type="text/css">.st1,.st2{fill:none;stroke:url(#SVGID_00000040564374838546118050000014746138812536239274_);stroke-miterlimit:10}.st2{stroke:url(#SVGID_00000168800046501721338100000003367929452876480911_)}.st3{fill:url(#SVGID_00000116940318706804416830000012209281576420724154_)}.st4{fill:url(#SVGID_00000147909886918929918180000005962183007384199834_)}.st5{fill:url(#SVGID_00000012441660002219694350000015025545674814777492_)}.st6{fill:url(#SVGID_00000166674203837273861120000000890271451098337443_)}.st7{fill:url(#SVGID_00000032640818465157198870000010819603168572621470_)}.st8{fill:url(#SVGID_00000103969958903715797680000004698526425922380436_)}.st9{fill:url(#SVGID_00000005947245455692965160000016690773374214000517_)}.st10{fill:url(#SVGID_00000108300420802619128090000003686030222521929151_)}.st11{fill:url(#SVGID_00000062899072854524489550000011594186721905891750_)}.st12{fill:url(#SVGID_00000090995289662804602260000013477638175962572721_)}.st13{fill:url(#SVGID_00000154399266847100189330000014579446655174990230_)}.st14{fill:url(#SVGID_00000044900740002913083510000013243899245443021207_)}.st15{fill:url(#SVGID_00000088836933104693382040000016671011125633478580_)}.st16{fill:url(#SVGID_00000100361847339445844170000015031552651950901677_)}.st17{fill:url(#SVGID_00000113326995753355212520000008514329758874290832_)}.st18{fill:url(#SVGID_00000065052816645622577580000011509044751964893843_)}.st19{fill:url(#SVGID_00000013883437887433568860000017303310102391109536_)}.st20{fill:url(#SVGID_00000083808776737148529710000004990009658018356667_)}.st21{fill:url(#SVGID_00000025437520587470093040000007693477144621039024_)}.st22{fill:url(#SVGID_00000075152446305283081360000018049733460591596418_)}.st23{fill:url(#SVGID_00000001658588046575861210000000906185940244407459_)}.st24{fill:url(#SVGID_00000140731794384892733620000009948024573775073433_)}.st25{fill:url(#SVGID_00000087383681752065396980000018159819109735823538_)}.st26{fill:url(#SVGID_00000181775998768932382900000009478261393757016254_)}.st27{fill:url(#SVGID_00000158731880268830218550000011070825269690446742_)}.st28{fill:url(#SVGID_00000183944380498609601860000011276679673278949776_)}.st29{fill:url(#SVGID_00000135672090543057091930000009427663687675516297_)}.st30{fill:url(#SVGID_00000089546172319334741580000012211081097158429094_)}.st31{fill:url(#SVGID_00000156563328376819006560000004645625231839054503_)}.st32{fill:url(#SVGID_00000073690520220709695470000004739838142436246950_)}.st33{fill:url(#SVGID_00000165918467019023283250000005216513166428146846_)}.st34{fill:url(#SVGID_00000092427347119877078120000003022642721844149641_)}.st35{fill:url(#SVGID_00000029031349640351846760000012375428711966445700_)}.st36{fill:url(#SVGID_00000059294944869406781860000009714842126384768644_)}.st37{fill:url(#SVGID_00000046319314260884279410000002060814438740229535_)}.st38{fill:url(#SVGID_00000147911883504427840520000000278707925859673509_)}.st39{fill:url(#SVGID_00000043415116894156656030000017472721556967720378_)}.st40{fill:url(#SVGID_00000057134154384865676240000011736367007360428730_)}.st41{fill:url(#SVGID_00000026864820511757208430000003781194156852139657_)}.st42{fill:url(#SVGID_00000158743782999439635270000005489455692238930330_)}.st43{fill:url(#SVGID_00000115503758444654277910000007448573617864533935_)}.st44{fill:url(#SVGID_00000109024055642893525150000007864375546938032516_)}.st45{fill:url(#SVGID_00000136385730472145803000000000185793553970995874_)}.st46{fill:url(#SVGID_00000104703888990731950160000011916105411433337986_)}.st47{fill:url(#SVGID_00000176750951794254113740000011180214653791722896_)}.st48{fill:url(#SVGID_00000164477616988350789150000012383592748340473268_)}.st49{fill:url(#SVGID_00000015331128731547812350000009773446557249053374_)}.st50{fill:url(#SVGID_00000019660840996269921550000017810842623353133185_)}.st51{fill:url(#SVGID_00000121983889989954866950000002179830580444147601_)}.st52{fill:url(#SVGID_00000026155376330111310450000005082245683574010256_)}.st53{fill:url(#SVGID_00000127026616839111951850000000351355840342996650_)}.st54{fill:url(#SVGID_00000129908977292310641720000008002315356950055056_)}.st55{fill:url(#SVGID_00000092419866065250511950000011762920468860337069_)}.st56{fill:url(#SVGID_00000046319210139953637280000005862568266703382413_)}.st57{fill:url(#SVGID_00000149350425246760770610000001762499987812838038_)}.st58{fill:url(#SVGID_00000026858423265036926370000005972085951395907999_)}.st59{fill:url(#SVGID_00000138536121145461552330000001780134302187303357_)}.st60{fill:url(#SVGID_00000004509554381072970130000010819362730839882416_)}.st61{fill:url(#SVGID_00000116957144403681555610000000381268393417350533_)}.st62{fill:url(#SVGID_00000125579903036394488300000000664208917920097958_)}.st63{fill:url(#SVGID_00000081628545591695242370000010379613005638077313_)}.st64{fill:url(#SVGID_00000026165372554853872970000015029634059838567557_)}.st65{fill:url(#SVGID_00000094614867754725217460000007548126543393245056_)}.st66{fill:url(#SVGID_00000052783364470510310900000000413168951767519628_)}.st67{fill:url(#SVGID_00000118397995571797652480000010035334706459890340_)}.st68{fill:url(#SVGID_00000089574356780482715220000003056073225453811354_)}.st69{fill:url(#SVGID_00000011710179791952834740000010231127948285065605_)}.st70{fill:url(#SVGID_00000176750701097425142990000005102887705852757131_)}.st71{fill:url(#SVGID_00000051360554702714487880000005214289801474124953_)}.st72{fill:url(#SVGID_00000119801272701556063940000017641948460976999558_)}.st73{fill:url(#SVGID_00000054968043016854020570000007480508792963461801_)}.st74{fill:url(#SVGID_00000005978744024920401030000002724957253415144611_)}.st75{fill:url(#SVGID_00000160887360896187920430000008130728915750370718_)}.st76{fill:url(#SVGID_00000007427164791017134310000013050289161523215783_)}.st77{fill:url(#SVGID_00000166658245032190633790000010473064650191805574_)}.st78{fill:url(#SVGID_00000171684412788607289060000016756957097519006374_)}.st79{fill:url(#SVGID_00000097458011991884499220000007686473036996900015_)}.st80{fill:url(#SVGID_00000114759441535318171750000007211059940059136648_)}.st81{fill:url(#SVGID_00000113344763423465529560000010446040953227289279_)}.st82{fill:url(#SVGID_00000137838989417168430590000017090024087402090934_)}.st83{fill:url(#SVGID_00000121262190038242137510000000911613762267599494_)}.st84{fill:url(#SVGID_00000067918938374682910820000018311999345142686626_)}.st85{fill:url(#SVGID_00000169539723743337572970000000400807793581476247_)}.st86{fill:url(#SVGID_00000029015283733072350410000016940266963592273311_)}.st87{fill:url(#SVGID_00000015350480829680554910000004042372419298919298_)}.st88{fill:url(#SVGID_00000134958657118904712750000001120396678134699148_)}.st89{fill:url(#SVGID_00000103947828228472989360000012860642482048465543_)}.st90{fill:url(#SVGID_00000148662458658813668890000013067253224903577530_)}.st91{fill:url(#SVGID_00000155824582980832636450000013211296327833200808_)}.st92{fill:url(#SVGID_00000054239292553448922600000006205489223580351616_)}.st93{fill:url(#SVGID_00000054241809035231049890000002117894299944150203_)}.st94{fill:url(#SVGID_00000141449574782167928460000015749408509314096778_)}.st95{fill:url(#SVGID_00000095331408415563302610000003887665942663452039_)}.st96{fill:url(#SVGID_00000114063766184552937870000010239420327483683980_)}.st97{fill:url(#SVGID_00000137849994441060846870000014503487666707408783_)}.st98{fill:url(#SVGID_00000086693627853061495370000015448373127708739240_)}.st99{fill:url(#SVGID_00000053539488742412267860000001535855377151718798_)}.st100{fill:url(#SVGID_00000023960382652203642380000000900135579858030240_)}.st101{fill:url(#SVGID_00000036249133384775054240000002421465440715856035_)}.st102{fill:url(#SVGID_00000160170119097421560880000016964409750695620790_)}.st103{fill:url(#SVGID_00000072970506079796517800000000424792640504815002_)}.st104{fill:url(#SVGID_00000124856709283583494860000007647623740620864430_)}.st105{fill:url(#SVGID_00000155106205816712466000000003183644424408440205_)}.st106{fill:url(#SVGID_00000013897976034253649300000009670823810803650185_)}.st107{fill:url(#SVGID_00000083767736149565580340000006600763404754273952_)}.st108{fill:url(#SVGID_00000028318023093279388530000010386739246039516834_)}.st109{fill:url(#SVGID_00000052817712552773766930000014661963401628106921_)}.st110{fill:url(#SVGID_00000082369716066833523000000004320192985670299821_)}.st111{fill:url(#SVGID_00000166670010251320570340000015620058863620726663_)}.st112{fill:url(#SVGID_00000164511676894115952200000001503781843172587962_)}.st113{fill:url(#SVGID_00000060011567952144005530000016886692788534110851_)}.st114{fill:url(#SVGID_00000091709030423831401020000009627299784628796333_)}.st115{fill:url(#SVGID_00000018932112777095122040000001176967432942021561_)}.st116{fill:url(#SVGID_00000075141106676291276390000013861760994205892022_)}.st117{fill:url(#SVGID_00000043424227407549818830000000973905846188107668_)}.st118{fill:url(#SVGID_00000029037265169137490430000003339969907018828214_)}.st119{fill:url(#SVGID_00000104676139738071091290000013748743198421356944_)}.st120{fill:url(#SVGID_00000180346816718543733380000005880876943892955301_)}.st121{fill:url(#SVGID_00000145768094925696388240000016067672101717164988_)}.st122{fill:url(#SVGID_00000033337799363109922090000017314525836926984577_)}.st123{fill:url(#SVGID_00000097482420198759981210000012333195621350138040_)}.st124{fill:url(#SVGID_00000045600491100380335740000012214971977462363541_)}.st125{fill:url(#SVGID_00000033333948415083285690000005710363720071285393_)}.st126{fill:url(#SVGID_00000083076651046094557430000004689451874249330063_)}.st127{fill:url(#SVGID_00000106110550602847249420000007259335321963758464_)}.st128{fill:url(#SVGID_00000048498069888472475010000005790212037552921262_)}.st129{fill:url(#SVGID_00000058587668364494355050000016906878592024186017_)}.st130{fill:url(#SVGID_00000039122071993646630420000006372440127411707805_)}.st131{fill:url(#SVGID_00000047739578997510092030000007980012857004566204_)}.st132{fill:url(#SVGID_00000096757241493365546960000015122748511581009078_)}.st133{fill:url(#SVGID_00000026874352867837459860000006186604273472443279_)}.st134{fill:url(#SVGID_00000107562856707918884720000006333750589957920435_)}.st135{fill:url(#SVGID_00000126284654821602881650000008986944865792102068_)}.st136{fill:url(#SVGID_00000026141941512419980850000000331725361986991012_)}.st137{fill:url(#SVGID_00000124840011890368303320000010697282577433961092_)}.st138{fill:url(#SVGID_00000008130576558365356560000003818861589469478327_)}.st139{fill:url(#SVGID_00000026881338311977200480000012495292373881096862_)}.st140{fill:url(#SVGID_00000165196140008797635070000017089166757471602071_)}.st141{fill:url(#SVGID_00000121990986929910715210000015117038497658046143_)}.st142{fill:url(#SVGID_00000078758935006652502480000016375400111651808916_)}.st143{fill:url(#SVGID_00000017496655370480815190000002942401291104562607_)}.st144{fill:url(#SVGID_00000094575818212153674380000016275482940231872399_)}.st145{fill:url(#SVGID_00000141434813543664355630000017628969258066195872_)}.st146{fill:url(#SVGID_00000030470178608823495410000000290579795922878143_)}.st147{fill:url(#SVGID_00000155826036558178999620000015697713575626123174_)}.st148{fill:url(#SVGID_00000075877582504280758110000017739775345773897601_)}.st149{fill:url(#SVGID_00000032647522187673450770000005864235421813878180_)}.st150{fill:url(#SVGID_00000036210272752774713730000006081197335467134906_)}.st151{fill:url(#SVGID_00000078740726966034936510000007456572133621770654_)}</style><linearGradient id="SVGID_1_" x1="-2.718" x2="397.043" y1="-9.149" y2="401.359" gradientUnits="userSpaceOnUse"><stop offset="0" style="stop-color:#f77560"/><stop offset="1" style="stop-color:#845b77"/></linearGradient><path d="M366 392c-7.3-1.8-12.6-6.4-17.8-11.6-30.4-30.6-61-61.1-91.5-91.6-.8-.8-1.6-1.5-2.5-2.4-.9.6-1.7 1-2.5 1.6-27.7 19.1-58.3 28.5-91.9 27.6-37.1-1.1-69.8-14.1-97.7-38.6-3.3-2.9-3.8-6.1-1.4-8.8 2.3-2.6 5.5-2.6 8.9.4 19.4 16.9 41.6 28 66.9 33.2 55.7 11.4 114.3-13 145.9-60.7 55.3-83.8 9.6-196.3-88.5-217.7-78.6-17.3-156.8 35.5-170 114.5-6.8 40.9 2.4 77.9 27.4 111l.9 1.2c2.4 3.4 2.1 6.5-.7 8.6-2.6 1.9-6 1.4-8.1-1.7-4.8-6.9-10-13.8-14-21.2C-15 155.5 22 53.3 107.5 19.7c86.1-33.9 182.4 15 205 104.8 11.3 44.7 3.3 86.5-22.4 124.9-.6.9-1.3 1.8-3 4.1 1.2.6 2.7 1 3.7 1.9 17.6 17.5 35.1 35.1 52.7 52.6l2.4 2.4c2.2 2.6 2.2 5.6.1 7.8-2.2 2.3-5.5 2.5-8 .1-4.1-3.8-8-7.9-11.9-11.9-.9-.9-1.6-1.9-2.1-2.6l-17.6 17.6c13.5 13.5 27.4 27.5 41.1 41.1 5.6-5.6 11.3-11.4 17.8-17.8-2.8-2.5-6.1-5.4-9.2-8.4-3.1-3-3.5-6.4-1.1-8.9 2.5-2.7 5.7-2.3 9.1 1 7.7 7.7 15.6 15.1 22.9 23.1 3.1 3.4 4.7 8 7 12v8.2c-1.6 3.4-2.8 7.1-4.8 10.3-3.5 5.6-9.3 8.2-15.5 9.9-2.7.1-5.2.1-7.7.1zm-84.9-129.6c-5.6 5.6-11.4 11.4-16.7 16.8l12.6 12.6 16.7-16.7c-4.2-4.2-8.6-8.6-12.6-12.7zm74.5 109.5c2 1.9 4 4.1 6.2 6 4.9 4.1 11.7 3.8 16.4-.5 4.6-4.3 5.7-11.5 2.1-16.2-2.1-2.7-4.8-4.9-6.9-7.1l-17.8 17.8zM303.1 284l-16.9 16.9 10.8 10.8 16.9-16.9c-3.3-3.4-7.1-7.2-10.8-10.8z" style="fill:url(#SVGID_1_)"/><linearGradient id="SVGID_00000094591445816215929510000002044142118242837900_" x1="-9.138" x2="390.624" y1="-2.897" y2="407.611" gradientUnits="userSpaceOnUse"><stop offset="0" style="stop-color:#f77560"/><stop offset="1" style="stop-color:#845b77"/></linearGradient><path d="M168.2 251.5c-46.2-.1-79.9-33.4-80.3-75.1-.1-8.8 2.5-17 6.1-24.8 8.7-19 21.6-35.2 35.4-50.7 6.9-7.7 14.1-15.1 21.4-22.5 7.4-7.5 17.5-7.5 25-.3C182 84 187.9 90 193.6 96.4c1.2 1.4 1.6 4.6 1 6.4-.6 1.6-3.1 3-5 3.5-1.3.3-3.3-1-4.4-2.1-5.8-5.8-11.2-12-17-17.8-3-3-6.3-2.9-9.2 0-18.6 18.5-35.5 38.2-49.8 60.4-27.3 42.4 8.7 92.5 52.1 93.6 37.6 1 68.6-28.9 67.2-65.6-.2-4.4-1.6-8.8-2.7-13.1-1.2-4.5-.3-7.4 3.3-8.6 3.3-1.1 6 .7 7.4 4.9 7.3 21.2 2.9 41-8.9 59.1-15.1 22.6-36.7 33.8-59.4 34.4z" style="fill:url(#SVGID_00000094591445816215929510000002044142118242837900_)"/><linearGradient id="SVGID_00000098207063205475907350000000477238008620273818_" x1="39.183" x2="438.945" y1="-49.953" y2="360.555" gradientUnits="userSpaceOnUse"><stop offset="0" style="stop-color:#f77560"/><stop offset="1" style="stop-color:#845b77"/></linearGradient><path d="M236.5 127.1c-2 2.4-3.2 4.9-5.2 6-6.1 3.2-10.4 7.8-13.8 13.7-1.1 1.9-3.9 3.5-6.2 3.9-2.9.5-5.2-1.5-6.2-4.3-2.4-6.4-6.7-10.8-13.1-13.5-1.8-.8-3.9-3.7-3.9-5.6 0-2.1 1.6-5.2 3.4-6.3 6-3.5 10.7-7.7 13.9-14.1 2.5-5 9.1-5.1 11.8-.2 3.5 6.3 8.3 11 14.6 14.5 1.9 1 2.8 3.5 4.7 5.9zm-24.6 5.9c2-1.8 4.6-4.2 6.7-6.2-2.3-2.4-4.8-5-6.7-7.1-2.5 2.2-5 4.5-7.5 6.7 2.8 2.5 5.4 4.8 7.5 6.6z" style="fill:url(#SVGID_00000098207063205475907350000000477238008620273818_)"/></svg>